<svg width="48" height="47" viewBox="0 0 48 47" fill="none" xmlns="http://www.w3.org/2000/svg">
<path fill-rule="evenodd" clip-rule="evenodd" d="M24 0.151001C37.2548 0.151001 48 10.6686 48 23.6427C48 35.3681 39.2235 45.0866 27.75 46.849V30.4332H33.3422L34.4062 23.6427H34.2908L34.3021 23.5702H27.75V19.236C27.75 17.3783 28.6798 15.5674 31.6612 15.5674H34.6875V9.78626C34.6875 9.78626 34.6515 9.78025 34.5839 9.76961V9.66125C34.5839 9.66125 31.832 9.20068 29.201 9.20068C23.7082 9.20068 20.1181 12.4651 20.1181 18.3751V23.5702H14.0125V30.3865H14.1562V30.4332H20.1181V46.8284C8.70928 45.0121 0 35.3231 0 23.6427C0 10.6686 10.7452 0.151001 24 0.151001Z" fill="#98C9BA"/>
</svg>
